Coordinates
version=1
nRows=10
nColumns=40
inDegrees=yes

Units are S.I. units (second, meters, Newtons, ...)
Angles are in degrees.

endheader
time	pelvis_tilt	pelvis_list	pelvis_rotation	pelvis_tx	pelvis_ty	pelvis_tz	hip_flexion_r	hip_adduction_r	hip_rotation_r	knee_angle_r	knee_angle_r_beta	ankle_angle_r	subtalar_angle_r	mtp_angle_r	hip_flexion_l	hip_adduction_l	hip_rotation_l	knee_angle_l	knee_angle_l_beta	ankle_angle_l	subtalar_angle_l	mtp_angle_l	lumbar_extension	lumbar_bending	lumbar_rotation	arm_flex_r	arm_add_r	arm_rot_r	elbow_flex_r	pro_sup_r	wrist_flex_r	wrist_dev_r	arm_flex_l	arm_add_l	arm_rot_l	elbow_flex_l	pro_sup_l	wrist_flex_l	wrist_dev_l
     35.03750000	     -1.46035480	     -5.18144494	      5.13888459	      1.08965836	      0.93323133	      0.48867219	      7.60947697	      3.39055643	    -16.58653294	     14.24573736	     14.24573736	     10.01582972	     -1.31448541	     -5.94401314	     30.33585798	    -13.93520522	      0.41371870	     50.73167650	     50.73167650	      9.37858216	    -18.28008393	     11.67434909	    -10.99657645	      5.81710237	      1.05683049	     22.73357522	    -21.47989382	     -2.83119693	     61.83311488	     45.08994656	      0.00000000	      0.00000000	      1.84283456	     -7.53612087	     -5.75864615	     29.11290750	     46.73760087	      0.00000000	      0.00000000
     35.05100000	     -1.76039968	     -5.07967915	      5.44156664	      1.08825818	      0.93318015	      0.48818908	      7.35256114	      3.32659059	    -16.78689445	     13.70428323	     13.70428323	     10.03253849	     -1.21186176	     -6.08341765	     30.69969136	    -13.47503216	      0.26806891	     46.98382549	     46.98382549	      9.69517600	    -18.06841592	     11.84348353	    -10.94034185	      5.72768673	      1.05802159	     24.12600762	    -21.62556424	     -3.27663712	     63.77584256	     45.05025235	      0.00000000	      0.00000000	      0.89681363	     -7.34087750	     -5.73390953	     28.19883727	     46.71306833	      0.00000000	      0.00000000
     35.06450000	     -2.05258207	     -5.01706147	      5.75217552	      1.08686651	      0.93305235	      0.48756421	      7.10669393	      3.29064069	    -17.00736759	     13.19573783	     13.19573783	     10.05973326	     -1.08680583	     -6.24872248	     30.91506738	    -12.98012588	      0.22752769	     43.00003683	     43.00003683	      9.87977592	    -17.66607907	     11.92320755	    -10.90393111	      5.64048771	      1.04527010	     25.46092522	    -21.68391019	     -3.73911725	     65.81753159	     45.00758739	      0.00000000	      0.00000000	     -0.03496140	     -7.18193983	     -5.70249561	     27.40772758	     46.68787377	      0.00000000	      0.00000000
     35.07800000	     -2.32790086	     -5.02967975	      6.07423078	      1.08551518	      0.93274195	      0.48670563	      6.79226502	      3.30951647	    -17.45067366	     12.56808766	     12.56808766	      9.80334656	     -0.77188339	     -7.27197240	     30.92547957	    -12.53478971	      0.18328476	     38.69123484	     38.69123484	      8.95959949	    -17.29106802	      9.25968619	    -11.01848905	      5.76094786	      2.00305006	     25.00720452	    -22.42697282	     -5.84090476	     71.12523530	     44.93630134	      0.00000000	      0.00000000	     -0.17040554	     -6.84288115	     -5.54300281	     26.12153724	     46.61939518	      0.00000000	      0.00000000
     35.09150000	     -2.63954883	     -4.98112362	      6.34317173	      1.08408634	      0.93244232	      0.48578703	      6.61644399	      3.25931349	    -17.60686309	     12.15294079	     12.15294079	      9.87179043	     -0.74980811	     -7.31364473	     30.94051388	    -11.97846174	      0.22113789	     34.56917704	     34.56917704	      9.05087739	    -16.21858421	      9.47070248	    -10.97819611	      5.72067929	      1.91255756	     26.51643435	    -22.27837757	     -6.23085085	     72.52124640	     44.91600609	      0.00000000	      0.00000000	     -1.09399034	     -6.76304504	     -5.45579271	     25.63218098	     46.58138065	      0.00000000	      0.00000000
     35.10500000	     -2.95104279	     -5.02098578	      6.62397166	      1.08274761	      0.93200354	      0.48472393	      6.38129889	      3.29246294	    -17.94196499	     11.62288372	     11.62288372	      9.89925339	     -0.42804580	     -7.51397277	     30.92218852	    -11.51829376	      0.26142703	     30.56391060	     30.56391060	      8.79763820	    -14.80125467	      8.98195471	    -10.95417335	      5.80474582	      1.80864867	     27.76341571	    -22.04465296	     -6.90028819	     74.75358306	     44.88462046	      0.00000000	      0.00000000	     -2.09399278	     -6.69165583	     -5.33331999	     25.45935248	     46.52504573	      0.00000000	      0.00000000
     35.11850000	     -3.26858550	     -5.00166147	      6.84923673	      1.08147365	      0.93156716	      0.48356169	      6.23752802	      3.24246540	    -18.11685257	     11.28015790	     11.28015790	      9.99345747	     -0.33888673	     -7.63263596	     30.82966812	    -11.02987477	      0.19722024	     26.79339525	     26.79339525	      8.70887749	    -12.94547760	      9.13090286	    -10.90086249	      5.76520839	      1.88583977	     28.96913543	    -22.02141867	     -7.28723862	     76.15137976	     44.86318439	      0.00000000	      0.00000000	     -2.90672569	     -6.62544953	     -5.28023380	     25.28504824	     46.49406258	      0.00000000	      0.00000000
     35.13200000	     -3.55175355	     -5.04828988	      7.07966975	      1.08034987	      0.93105694	      0.48226717	      6.00863473	      3.26787523	    -18.35713029	     10.85317825	     10.85317825	     10.06500187	     -0.12994571	     -7.76870719	     30.75587340	    -10.63286099	      0.06688111	     23.48268208	     23.48268208	      8.51751968	    -10.90033756	      9.27126959	    -10.87018571	      5.84247364	      1.85976257	     30.13523834	    -21.83762722	     -7.72702861	     77.77970774	     44.83612160	      0.00000000	      0.00000000	     -3.74384572	     -6.58341989	     -5.24024683	     25.19971983	     46.46434873	      0.00000000	      0.00000000
     35.14550000	     -3.81328203	     -5.09144381	      7.29032312	      1.07936015	      0.93058388	      0.48089669	      5.73235867	      3.29584816	    -18.60102850	     10.39710121	     10.39710121	     10.17476014	      0.09762010	     -7.91531614	     30.68711614	    -10.27876723	     -0.24832642	     20.68601165	     20.68601165	      8.16255163	     -8.84127190	      9.49582636	    -10.85003214	      5.86791621	      1.83992150	     31.15472708	    -21.57610433	     -8.16193343	     79.34919709	     44.80999557	      0.00000000	      0.00000000	     -4.52745422	     -6.55902938	     -5.21649040	     25.18088038	     46.43887426	      0.00000000	      0.00000000
     35.15900000	     -4.18943912	     -5.33745526	      7.50023557	      1.07833507	      0.92968905	      0.47941407	      5.70328460	      3.49112946	    -18.79044294	     10.12323852	     10.12323852	     10.25725180	      0.20994905	     -8.00063477	     31.04271862	    -10.06090410	     -0.20460687	     18.84474805	     18.84474805	      7.78712635	     -7.36892388	      9.76406889	    -10.60939876	      6.10172474	      1.99335883	     32.30176038	    -21.71853455	     -8.50207576	     80.26640372	     44.79897373	      0.00000000	      0.00000000	     -5.10151351	     -6.48443654	     -5.21332386	     25.09723661	     46.42516935	      0.00000000	      0.00000000
